# xmcd
#
# Track frame offsets: 
#        150
#        19680
#        43247
#        59852
#        78552
#        98960
#        116820
#        127992
#        143560
#        158997
#        179155
#
# Disc length: 2680 seconds
#
# Revision: 5
# Processed by: cddbd v1.5.2PL0 Copyright (c) Steve Scherf et al.
# Submitted via: ExactAudioCopyFreeDBPlugin 1.0
#
DISCID=a10a760b
DTITLE=Rosanne Cash - The Wheel
DYEAR=1993
DGENRE=Country
TTITLE0=The Wheel
TTITLE1=Seventh Avenue
TTITLE2=Change Partners
TTITLE3=Sleeping In Paris
TTITLE4=You Won't Let Me In
TTITLE5=From The Ashes
TTITLE6=The Truth About You
TTITLE7=Tears Falling Down
TTITLE8=Roses In The Fire
TTITLE9=Fire Of The Newly Alive
TTITLE10=If There's A God On My Side
EXTD=
EXTT0=
EXTT1=
EXTT2=
EXTT3=
EXTT4=
EXTT5=
EXTT6=
EXTT7=
EXTT8=
EXTT9=
EXTT10=
PLAYORDER=
